<svg width="379" height="146" viewBox="0 0 379 146" fill="none" xmlns="http://www.w3.org/2000/svg">
<path d="M43.7098 38.2682L29.0556 81.8348C29.0188 81.9442 29 82.0589 29 82.1743C29 82.6603 29.329 83.0846 29.7997 83.2056L40.8083 86.0364C44.4788 86.9803 48.3666 86.5667 51.7564 84.8718L54.9424 83.2788C57.8606 81.8197 61.2389 81.5796 64.3341 82.6114C67.0281 83.5094 69.3285 85.3118 70.8449 87.7128L73.5056 91.9256C74.1302 92.9145 74.2428 94.1429 73.8084 95.2289C73.0785 97.0537 73.9252 99.1288 75.7233 99.922L81.0041 102.252C85.7449 104.343 91.2906 102.307 93.5512 97.6444L96.0721 92.4451C96.9454 90.6438 98.7712 89.5 100.773 89.5C104.834 89.5 111.336 94.4167 113.906 97.56C114.641 98.4585 115.5 99.4373 116.5 100.5C121.788 106.118 132.672 105.752 139.962 104.421C142.641 103.932 145.033 102.521 147.01 100.648L151.267 96.6156C152.663 95.2928 154.625 94.7501 156.503 95.1673C159.756 95.8901 161.728 99.2032 160.812 102.407L160.253 104.366C159.766 106.07 159.881 107.889 160.579 109.518L160.929 110.334C161.939 112.691 163.8 114.581 166.141 115.629L168.935 116.879C176.355 120.198 185.078 118.144 190.237 111.864L191.817 109.94C192.604 108.982 193.473 108.094 194.414 107.288L202.698 100.187C205.527 97.7624 208.995 95.8437 212.611 96.7418C215.767 97.5258 219.67 99.445 223.5 103.5C228.766 109.076 239.17 107.215 246.77 104.466C250.605 103.079 253.596 100.131 255.658 96.6132L258.672 91.4717C260.14 88.9678 262.71 87.2863 265.59 86.9263C269.899 86.3876 274.039 88.91 275.5 93L277.112 96.1229C280.747 103.167 289.102 106.346 296.5 103.5L310.296 95.9751C311.99 95.051 314.029 95.0146 315.755 95.8776C316.574 96.2869 317.476 96.5 318.392 96.5H323.802C326.49 96.5 329.068 97.5676 330.968 99.4681L331.364 99.8638C331.786 100.286 332.266 100.645 332.79 100.931C335.499 102.409 338.881 101.687 340.752 99.2323L342.898 96.4145C344.536 94.2656 345.063 91.4701 344.321 88.8725C343.789 87.0125 343.903 85.0273 344.644 83.2403L349.426 71.707C350.866 68.2361 349.316 64.2474 345.911 62.6585C344.982 62.2248 343.961 62.0069 342.965 61.7652C340.86 61.2547 337.119 59.8126 332 56.5C326.094 52.6784 317.246 54.1123 312.073 55.7565C310.686 56.1974 309.47 57.0301 308.441 58.0591L307.889 58.611C304.957 61.5429 300.499 62.3152 296.752 60.5402C294.652 59.5458 292.268 59.3285 290.024 59.927L287.4 60.6268C286.473 60.8738 285.596 61.2766 284.804 61.818L280.445 64.8008C278.386 66.2095 275.554 65.4196 274.522 63.1484C274.182 62.4008 274.08 61.567 274.229 60.7594L275.807 52.1919C276.738 47.1339 273.357 42.2898 268.288 41.4208L266.385 41.0946C262.766 40.4742 259.27 42.7102 258.316 46.2553L257.195 50.4175C256.809 51.8512 255.346 52.7115 253.905 52.3513C253.027 52.1317 252.096 52.3632 251.423 52.9691L248.944 55.2002C247.992 56.0569 247.228 57.1215 246.715 58.2946C245.107 61.9703 241.305 64.255 237.309 63.8918L235.416 63.7197C233.822 63.5747 232.214 63.7515 230.689 64.2395L227.452 65.2753C223.045 66.6857 218.239 66.0765 214.323 63.6108C209.765 60.7411 207 55.7323 207 50.3463V49.7283C207 48.9114 206.919 48.0965 206.759 47.2955L206.466 45.8288C205.86 42.8004 203.822 40.2543 201 39L198.348 38.1161C196.186 37.3955 193.839 37.4644 191.723 38.3108C190.585 38.7661 189.37 39 188.144 39H187.162C186.058 39 184.956 38.8757 183.879 38.6296L171.061 35.6996C169.148 35.2624 167.143 35.807 165.714 37.152C162.713 39.9764 157.813 38.9235 156.237 35.1156L156.072 34.7148C154.687 31.3695 150.739 29.9222 147.521 31.5801L143.591 33.6047C139.774 35.5711 137.909 39.9851 139.159 44.0927L139.342 44.6962C140.068 47.0813 139.59 49.6705 138.059 51.6385C137.362 52.535 136.872 53.5751 136.626 54.6837L136.108 57.0119C135.461 59.9264 132.876 62 129.89 62C128.974 62 128.069 62.1976 127.236 62.5793L126.517 62.9086C121.151 65.3685 114.832 62.6637 112.908 57.0824L112.851 56.9171C111.985 54.4063 110.17 52.3348 107.794 51.147L101.715 48.1077C98.4671 46.4835 94.6142 46.6315 91.5 48.5L89.3284 49.9658C80.7598 55.7496 69.0566 51.0986 66.7956 41.0109L66.446 39.4514C65.5475 35.4427 62.632 32.1881 58.746 30.8558C52.5456 28.7299 45.7995 32.0556 43.7098 38.2682Z" fill="#B22241" stroke="#B22241" stroke-width="24"/>
<path d="M345.497 95.1896L338.737 102.27C337.767 103.259 336.893 103.675 335.995 103.408C335.305 103.203 330.802 100.664 328.314 96.3951C324.172 97.1926 320.199 96.9138 316.679 95.8682C305.152 92.4446 297.838 80.658 301.138 69.5458C303.598 61.2634 313.012 51.0656 326.678 55.1248C330.129 56.1498 333.285 57.9136 335.628 59.8864C336.186 59.5263 336.869 59.5037 337.697 59.7497L338.042 59.8522L349.675 64.4342C351.428 65.1053 351.645 66.146 351.399 66.9743L351.297 67.3193C348.465 73.3131 345.715 79.0308 344.362 83.5861C343.132 87.7273 343.009 90.9207 344.87 92.75C345.457 93.3001 346.093 93.9398 345.888 94.63C345.847 94.768 345.717 94.9546 345.497 95.1896ZM326.771 84.1445C327.097 82.2884 327.533 80.3149 328.168 78.1753C328.701 76.3808 329.324 74.5377 330.077 72.5081C329.659 70.8817 328.082 69.3619 326.08 68.7674C321.732 67.4759 318.066 70.9685 317.02 74.4885C315.872 78.3536 317.58 82.4661 322.066 83.7987C323.378 84.1882 324.978 84.3631 326.771 84.1445Z" fill="#DE69E4"/>
<path d="M297.63 102.316L284.515 108.14C283.707 108.447 282.83 108.164 282.523 107.356L267.354 73.0674C267.047 72.2596 267.398 71.3565 268.138 71.0755L275.794 67.7082C278.994 65.1843 282.29 63.3174 285.656 62.0401C287.945 61.1715 290.268 60.5977 292.534 60.2769C293.646 60.163 294.254 60.5483 294.561 61.356C294.663 61.6253 294.698 61.9201 294.758 62.2822L296.408 72.5146C296.564 73.5336 296.07 74.2603 295.262 74.5669C295.06 74.6435 294.765 74.6784 294.47 74.7132C293.265 74.7854 292.044 75.0178 290.9 75.452C289.958 75.8097 289.066 76.302 288.091 76.98L298.414 100.324L298.465 100.459C298.746 101.199 298.37 102.035 297.63 102.316Z" fill="#DE69E4"/>
<path d="M260.512 85.816C260.512 99.856 246.256 107.704 236.032 107.704C224.296 107.704 214 99.208 214 86.536C214 71.704 225.088 64 237.76 64C253.672 64 260.512 76.456 260.512 85.816ZM237.76 93.952C242.872 93.952 245.176 89.776 245.176 85.672C245.176 84.304 244.888 77.32 237.544 77.32C231.496 77.32 229.768 82.432 229.768 85.672C229.768 90.64 233.656 93.952 237.76 93.952Z" fill="#DE69E4"/>
<path d="M206.515 97.304L192.115 98.024H191.971C191.179 98.024 190.603 97.376 190.531 96.584L188.731 61.52C188.731 60.656 189.307 60.008 190.171 59.936L204.571 59.216H204.715C205.435 59.216 206.083 59.864 206.083 60.584L207.883 95.72V95.864C207.883 96.584 207.235 97.232 206.515 97.304ZM207.235 47.408C207.235 53.24 202.483 57.992 196.651 57.992C190.747 57.992 185.995 53.24 185.995 47.408C185.995 41.504 190.747 36.752 196.651 36.752C202.483 36.752 207.235 41.504 207.235 47.408Z" fill="#DE69E4"/>
<path d="M169.105 98.4258L155.056 94.9512C154.287 94.761 153.814 93.9764 154.004 93.2076L168.127 36.1042C168.334 35.2655 169.119 34.792 169.888 34.9822L183.937 38.4568C184.705 38.647 185.179 39.4316 184.971 40.2703L170.848 97.3737C170.658 98.1425 169.873 98.616 169.105 98.4258Z" fill="#DE69E4"/>
<path d="M141.501 104.312L140.679 104.579C125.132 109.62 113.882 101.536 110.507 91.125C107.331 81.331 110.917 68.8146 126.533 63.7515C143.519 58.2443 149.18 73.1363 149.913 75.3964C150.934 78.547 150.477 81.5715 146.88 84.2515C144.016 86.391 139.192 88.7877 135.675 90.0795C134.579 90.4348 134.081 90.0664 133.541 89.3333C131.986 87.3396 129.241 83.3097 129.153 83.0358C128.908 82.2824 129.345 81.7623 130.169 81.2681C133.464 79.2915 133.899 78.9991 133.588 78.0402C133.388 77.4238 131.376 75.654 128.5 76.5867C125.212 77.6526 123.405 81.4175 124.782 85.6638C126.359 90.5266 131.697 94.8511 140.258 92.0752C140.737 91.9198 141.285 91.7421 141.743 91.5182L141.88 91.4738C142.838 91.1629 144.203 91.4018 144.58 92.5661C144.802 93.251 144.532 98.4857 144.259 101.147C144.067 102.421 143.487 103.669 141.501 104.312Z" fill="#DE69E4"/>
<path d="M87.6091 106.852L87.5423 106.825L74.3623 100.416C72.9173 99.763 72.8342 98.025 73.1272 97.2892L73.1538 97.2223L87.8025 69.5759L87.9357 69.2414C88.1221 68.7731 88.1617 68.4789 87.961 68.399C87.8273 68.3458 87.5467 68.4666 87.1459 68.6945C85.2761 69.8875 76.2383 78.3788 70.5105 83.2281C70.0298 83.6567 68.9212 84.3003 67.4229 83.7813L60.4263 81.3059C59.2222 80.8265 58.9527 79.5568 58.871 78.5943C57.9764 71.1085 57.0878 59.1303 56.5092 56.8851C56.3748 56.4441 56.254 56.1635 56.0533 56.0836C55.9196 56.0304 55.7461 56.2713 55.5864 56.6727L55.3999 57.1409L47.0919 86.7692L47.0652 86.8361C46.7723 87.5719 45.2765 88.6038 43.7516 88.1517L30.4819 84.1088L30.415 84.0822C29.3447 83.6561 29.0083 82.3598 29.3812 81.4232L47.3849 28.6089C47.6779 27.873 48.4787 27.0294 49.803 27.4016L63.274 31.9121L63.4078 31.9654C64.3443 32.3382 65.4691 33.406 65.6035 33.847C67.3367 39.0318 69.6833 51.4354 71.4135 63.0512C71.4674 63.3051 71.5077 63.3987 71.6415 63.4519C71.7753 63.5052 71.8954 63.398 72.1091 63.2506C81.3494 56.0024 91.5522 48.6723 96.3746 46.0974C96.7754 45.8695 98.0587 45.7604 98.9952 46.1333L99.129 46.1865L112.175 52.1551C113.419 52.728 113.447 53.8243 113.154 54.5601L113.101 54.6939L90.1876 105.631C89.7479 106.541 88.6125 107.251 87.6091 106.852Z" fill="#DE69E4"/>
<mask id="mask0_1_2" style="mask-type:alpha" maskUnits="userSpaceOnUse" x="29" y="27" width="323" height="82">
<path d="M345.497 95.1896L338.737 102.27C337.767 103.259 336.893 103.675 335.995 103.408C335.305 103.203 330.802 100.664 328.314 96.3951C324.172 97.1926 320.199 96.9138 316.679 95.8682C305.152 92.4446 297.838 80.658 301.138 69.5458C303.598 61.2634 313.012 51.0656 326.678 55.1248C330.129 56.1498 333.285 57.9136 335.628 59.8864C336.186 59.5263 336.869 59.5037 337.697 59.7497L338.042 59.8522L349.675 64.4342C351.428 65.1053 351.645 66.146 351.399 66.9743L351.297 67.3193C348.465 73.3131 345.715 79.0308 344.362 83.5861C343.132 87.7273 343.009 90.9207 344.87 92.75C345.457 93.3001 346.093 93.9398 345.888 94.63C345.847 94.768 345.717 94.9546 345.497 95.1896ZM326.771 84.1445C327.097 82.2884 327.533 80.3149 328.168 78.1753C328.701 76.3808 329.324 74.5377 330.077 72.5081C329.659 70.8817 328.082 69.3619 326.08 68.7674C321.732 67.4759 318.066 70.9685 317.02 74.4885C315.872 78.3536 317.58 82.4661 322.066 83.7987C323.378 84.1882 324.978 84.3631 326.771 84.1445Z" fill="#DE69E4"/>
<path d="M297.63 102.316L284.515 108.14C283.707 108.447 282.83 108.164 282.523 107.356L267.354 73.0674C267.047 72.2596 267.398 71.3565 268.138 71.0755L275.794 67.7082C278.994 65.1843 282.29 63.3174 285.656 62.0401C287.945 61.1715 290.268 60.5977 292.534 60.2769C293.646 60.163 294.254 60.5483 294.561 61.356C294.663 61.6253 294.698 61.9201 294.758 62.2822L296.408 72.5146C296.564 73.5336 296.07 74.2603 295.262 74.5669C295.06 74.6435 294.765 74.6784 294.47 74.7132C293.265 74.7854 292.044 75.0178 290.9 75.452C289.958 75.8097 289.066 76.302 288.091 76.98L298.414 100.324L298.465 100.459C298.746 101.199 298.37 102.035 297.63 102.316Z" fill="#DE69E4"/>
<path d="M260.512 85.816C260.512 99.856 246.256 107.704 236.032 107.704C224.296 107.704 214 99.208 214 86.536C214 71.704 225.088 64 237.76 64C253.672 64 260.512 76.456 260.512 85.816ZM237.76 93.952C242.872 93.952 245.176 89.776 245.176 85.672C245.176 84.304 244.888 77.32 237.544 77.32C231.496 77.32 229.768 82.432 229.768 85.672C229.768 90.64 233.656 93.952 237.76 93.952Z" fill="#DE69E4"/>
<path d="M206.515 97.304L192.115 98.024H191.971C191.179 98.024 190.603 97.376 190.531 96.584L188.731 61.52C188.731 60.656 189.307 60.008 190.171 59.936L204.571 59.216H204.715C205.435 59.216 206.083 59.864 206.083 60.584L207.883 95.72V95.864C207.883 96.584 207.235 97.232 206.515 97.304ZM207.235 47.408C207.235 53.24 202.483 57.992 196.651 57.992C190.747 57.992 185.995 53.24 185.995 47.408C185.995 41.504 190.747 36.752 196.651 36.752C202.483 36.752 207.235 41.504 207.235 47.408Z" fill="#DE69E4"/>
<path d="M169.105 98.4258L155.056 94.9512C154.287 94.761 153.814 93.9764 154.004 93.2076L168.127 36.1042C168.334 35.2655 169.119 34.792 169.888 34.9822L183.937 38.4568C184.705 38.647 185.179 39.4316 184.971 40.2703L170.848 97.3737C170.658 98.1425 169.873 98.616 169.105 98.4258Z" fill="#DE69E4"/>
<path d="M141.501 104.312L140.679 104.579C125.132 109.62 113.882 101.536 110.507 91.125C107.331 81.331 110.917 68.8146 126.533 63.7515C143.519 58.2443 149.18 73.1363 149.913 75.3964C150.934 78.547 150.477 81.5715 146.88 84.2515C144.016 86.391 139.192 88.7877 135.675 90.0795C134.579 90.4348 134.081 90.0664 133.541 89.3333C131.986 87.3396 129.241 83.3097 129.153 83.0358C128.908 82.2824 129.345 81.7623 130.169 81.2681C133.464 79.2915 133.899 78.9991 133.588 78.0402C133.388 77.4238 131.376 75.654 128.5 76.5867C125.212 77.6526 123.405 81.4175 124.782 85.6638C126.359 90.5266 131.697 94.8511 140.258 92.0752C140.737 91.9198 141.285 91.7421 141.743 91.5182L141.88 91.4738C142.838 91.1629 144.203 91.4018 144.58 92.5661C144.802 93.251 144.532 98.4857 144.259 101.147C144.067 102.421 143.487 103.669 141.501 104.312Z" fill="#DE69E4"/>
<path d="M87.6091 106.852L87.5423 106.825L74.3623 100.416C72.9173 99.763 72.8342 98.025 73.1272 97.2892L73.1538 97.2223L87.8025 69.5759L87.9357 69.2414C88.1221 68.7731 88.1617 68.4789 87.961 68.399C87.8273 68.3458 87.5467 68.4666 87.1459 68.6945C85.2761 69.8875 76.2383 78.3788 70.5105 83.2281C70.0298 83.6567 68.9212 84.3003 67.4229 83.7813L60.4263 81.3059C59.2222 80.8265 58.9527 79.5568 58.871 78.5943C57.9764 71.1085 57.0878 59.1303 56.5092 56.8851C56.3748 56.4441 56.254 56.1635 56.0533 56.0836C55.9196 56.0304 55.7461 56.2713 55.5864 56.6727L55.3999 57.1409L47.0919 86.7692L47.0652 86.8361C46.7723 87.5719 45.2765 88.6038 43.7516 88.1517L30.4819 84.1088L30.415 84.0822C29.3447 83.6561 29.0083 82.3598 29.3812 81.4232L47.3849 28.6089C47.6779 27.873 48.4787 27.0294 49.803 27.4016L63.274 31.9121L63.4078 31.9654C64.3443 32.3382 65.4691 33.406 65.6035 33.847C67.3367 39.0318 69.6833 51.4354 71.4135 63.0512C71.4674 63.3051 71.5077 63.3987 71.6415 63.4519C71.7753 63.5052 71.8954 63.398 72.1091 63.2506C81.3494 56.0024 91.5522 48.6723 96.3746 46.0974C96.7754 45.8695 98.0587 45.7604 98.9952 46.1333L99.129 46.1865L112.175 52.1551C113.419 52.728 113.447 53.8243 113.154 54.5601L113.101 54.6939L90.1876 105.631C89.7479 106.541 88.6125 107.251 87.6091 106.852Z" fill="#DE69E4"/>
</mask>
<g mask="url(#mask0_1_2)">
<path d="M53.074 69.4009L20.4628 85.5028C3.85487 93.7029 2.40139 116.827 17.8518 127.043L37.9094 140.304C41.5665 142.722 45.8161 144.092 50.1968 144.265L342.059 155.815C357.415 156.423 369.378 142.641 366.617 127.523L364.501 115.932C362.697 106.055 354.937 98.3454 345.049 96.6059L311.602 90.7217C308.888 90.2441 306.111 90.2377 303.395 90.7027L257.796 98.508C253.988 99.1597 250.08 98.8828 246.402 97.7007L202.595 83.6198C198.286 82.2349 193.674 82.0965 189.29 83.2206L145.42 94.4692C140.285 95.7859 134.858 95.3653 129.987 93.2731L73.1714 68.8689C66.7172 66.0966 59.3725 66.2911 53.074 69.4009Z" fill="#00E9F2"/>
<path d="M56.074 54.9009L23.4628 71.0028C6.85487 79.2029 5.40139 102.327 20.8518 112.543L40.9094 125.804C44.5665 128.222 48.8161 129.592 53.1968 129.765L345.059 141.315C360.415 141.923 372.378 128.141 369.617 113.023L367.501 101.432C365.697 91.5554 357.937 83.8454 348.049 82.1059L314.602 76.2217C311.888 75.7441 309.111 75.7377 306.395 76.2027L260.796 84.008C256.988 84.6597 253.08 84.3828 249.402 83.2007L205.595 69.1198C201.286 67.7349 196.674 67.5965 192.29 68.7206L148.42 79.9692C143.285 81.2859 137.858 80.8653 132.987 78.7731L76.1714 54.3689C69.7172 51.5966 62.3725 51.7911 56.074 54.9009Z" fill="#00E9F2" fill-opacity="0.75"/>
<path d="M55.074 39.9009L22.4628 56.0028C5.85487 64.2029 4.40139 87.3274 19.8518 97.5425L39.9094 110.804C43.5665 113.222 47.8161 114.592 52.1968 114.765L344.059 126.315C359.415 126.923 371.378 113.141 368.617 98.0225L366.501 86.4316C364.697 76.5554 356.937 68.8454 347.049 67.1059L313.602 61.2217C310.888 60.7441 308.111 60.7377 305.395 61.2027L259.796 69.008C255.988 69.6597 252.08 69.3828 248.402 68.2007L204.595 54.1198C200.286 52.7349 195.674 52.5965 191.29 53.7206L147.42 64.9692C142.285 66.2859 136.858 65.8653 131.987 63.7731L75.1714 39.3689C68.7172 36.5966 61.3725 36.7911 55.074 39.9009Z" fill="#00E9F2" fill-opacity="0.5"/>
<path d="M60.074 11.9009L27.4628 28.0028C10.8549 36.2029 9.40139 59.3274 24.8518 69.5425L44.9094 82.8038C48.5665 85.2217 52.8161 86.5917 57.1968 86.765L349.059 98.3151C364.415 98.9228 376.378 85.1413 373.617 70.0225L371.501 58.4316C369.697 48.5554 361.937 40.8454 352.049 39.1059L318.602 33.2217C315.888 32.7441 313.111 32.7377 310.395 33.2027L264.796 41.008C260.988 41.6597 257.08 41.3828 253.402 40.2007L209.595 26.1198C205.286 24.7349 200.674 24.5965 196.29 25.7206L152.42 36.9692C147.285 38.2859 141.858 37.8653 136.987 35.7731L80.1714 11.3689C73.7172 8.59665 66.3725 8.79108 60.074 11.9009Z" fill="#00E9F2" fill-opacity="0.25"/>
</g>
<g clip-path="url(#clip0_1_2)">
<path d="M145.475 54.5108L140.411 38.6674L153.583 31.7709L158.647 47.6143M145.475 54.5108C146.12 56.53 145.082 58.666 143.156 59.2817C141.229 59.8973 139.145 58.7595 138.499 56.7403C137.854 54.721 138.892 52.585 140.818 51.9693C142.745 51.3537 144.829 52.4915 145.475 54.5108ZM158.647 47.6143C159.292 49.6335 158.254 51.7696 156.328 52.3852C154.402 53.0009 152.317 51.863 151.671 49.8438C151.026 47.8246 152.064 45.6885 153.991 45.0729C155.917 44.4572 158.002 45.5951 158.647 47.6143Z" stroke="#00E9F2" stroke-opacity="0.75" stroke-width="4" stroke-linecap="round" stroke-linejoin="round"/>
</g>
<g clip-path="url(#clip1_1_2)">
<path d="M170.399 112.241L179.68 98.438L193.262 104.486L183.982 118.29M170.399 112.241C169.217 114 166.897 114.512 165.219 113.384C163.541 112.255 163.139 109.914 164.322 108.155C165.505 106.396 167.824 105.885 169.502 107.013C171.181 108.141 171.582 110.482 170.399 112.241ZM183.982 118.29C182.799 120.049 180.48 120.56 178.802 119.432C177.123 118.304 176.722 115.963 177.905 114.204C179.087 112.444 181.407 111.933 183.085 113.061C184.763 114.19 185.165 116.53 183.982 118.29Z" stroke="#4BEDFF" stroke-width="4" stroke-linecap="round" stroke-linejoin="round"/>
</g>
<g clip-path="url(#clip2_1_2)">
<path d="M257.298 59.465L261.355 43.3346L276.183 44.4261L272.126 60.5565M257.298 59.465C256.78 61.5209 254.771 62.7875 252.81 62.2942C250.849 61.8008 249.678 59.7343 250.195 57.6785C250.713 55.6227 252.722 54.356 254.683 54.8494C256.644 55.3427 257.815 57.4092 257.298 59.465ZM272.126 60.5565C271.609 62.6123 269.6 63.879 267.638 63.3856C265.677 62.8923 264.507 60.8258 265.024 58.77C265.541 56.7141 267.55 55.4475 269.511 55.9408C271.472 56.4342 272.643 58.5007 272.126 60.5565Z" stroke="#00E9F2" stroke-width="4" stroke-linecap="round" stroke-linejoin="round"/>
</g>
<defs>
<clipPath id="clip0_1_2">
<rect width="29.2931" height="30.7069" fill="white" transform="translate(128 35.918) rotate(-17.7245)"/>
</clipPath>
<clipPath id="clip1_1_2">
<rect width="29.2931" height="30.7069" fill="white" transform="translate(174.133 87) rotate(33.9142)"/>
</clipPath>
<clipPath id="clip2_1_2">
<rect width="29.2931" height="30.7069" fill="white" transform="translate(252.263 34.4508) rotate(14.12)"/>
</clipPath>
</defs>
</svg>
